<svg width="104" height="123" viewBox="0 0 104 123" fill="none" xmlns="http://www.w3.org/2000/svg">
<path fill-rule="evenodd" clip-rule="evenodd" d="M54.6035 0C68.6491 8.5254e-05 79.3622 2.48626 86.7422 7.45801C94.122 12.4298 97.8125 19.6511 97.8125 29.1211C97.8124 36.697 95.4898 42.9707 90.8477 47.9424C86.2054 52.9139 79.6591 55.993 71.208 57.1768V57.8867C81.5639 59.3073 89.4795 62.6809 94.9551 68.0078C100.43 73.3347 103.169 80.3187 103.169 88.96C103.169 98.43 99.8356 106.421 93.1699 112.932C86.6231 119.324 76.5042 122.521 62.8154 122.521H10.1436V121.101L24.7852 119.68V114.535C23.3771 114.232 21.9814 113.872 20.5996 113.451C15.6468 112.043 11.425 110.032 7.93555 107.417L4.39062 115.714H2.19434L0 79.6631L1.52051 79.3613C3.20893 86.1991 4.89654 91.5294 6.58496 95.3506C8.38596 99.1717 10.6938 102.49 13.5078 105.306C16.6944 108.487 20.4541 110.784 24.7852 112.199V63.2002C21.2862 61.6775 18.2019 60.1767 15.5342 58.6953C11.3696 56.282 7.87944 53.2156 5.06543 49.4951C2.36399 45.674 1.01279 41.0472 1.0127 35.6172C1.01276 30.0866 2.47676 25.158 5.40332 20.834C8.44252 16.4096 12.5518 12.9915 17.7295 10.5781C19.9611 9.51771 22.3133 8.68246 24.7852 8.06934V2.84082L10.1436 1.41992V0H54.6035ZM50.1338 58.7744C53.4825 60.31 56.3581 61.791 58.7588 63.2207C62.9237 65.6342 66.2452 68.6513 68.7217 72.2715C71.3105 75.791 72.6044 80.1656 72.6045 85.3945C72.6044 91.2267 71.0295 96.4565 67.8779 101.082C64.7262 105.607 60.3351 109.177 54.707 111.792C49.8773 114.081 44.4859 115.368 38.5342 115.652V120.39H58.5303C76.9804 120.39 86.2059 110.091 86.2061 89.4932C86.206 78.7214 83.8851 70.9082 79.2432 66.0547C74.6008 61.2013 67.6958 58.7744 58.5303 58.7744H50.1338ZM24.7881 76.1641C30.5991 78.2982 34.4375 79.7461 38.5342 81.2783V113.854C45.5731 113.538 51.1333 111.694 55.2139 108.322C59.8286 104.501 62.1365 99.3728 62.1367 92.9375C62.1367 88.4125 60.8981 84.59 58.4219 81.4727C56.0581 78.3555 52.7935 75.6907 48.6289 73.4785C45.9646 72.0633 42.6087 70.5041 38.5625 68.8008V68.793L24.7881 63.1875V76.1641ZM38.5342 6.9043C42.0514 7.14052 45.3597 7.81056 48.459 8.91797C52.5113 10.3258 56.8458 12.6386 61.4609 15.8564L65.5137 8.61719H67.708L69.3965 41.5L67.708 41.9521C65.907 35.2148 63.5992 29.2818 60.7852 24.1533C55.7569 14.8998 48.3477 9.78233 38.5576 8.7959C33.1731 8.66262 29.1473 8.94887 24.7783 10.2354L24.7773 10.2363C22.307 11.1337 20.1259 12.4037 18.2354 14.0469C14.0708 17.5664 11.9884 22.3936 11.9883 28.5273C11.9883 32.9519 13.114 36.6737 15.3652 39.6904C17.6693 42.6308 20.7774 45.1862 24.6855 47.3623V47.3662L24.7227 47.3828C24.7436 47.3945 24.7641 47.4073 24.7852 47.4189V47.4121L38.5576 53.8496C39.8316 54.3929 41.1614 54.9544 42.5498 55.5283C43.481 55.9027 44.3868 56.2749 45.2666 56.6436H59.2451C67.22 56.6435 72.9337 54.3351 76.3857 49.7188C79.9567 45.1021 81.7421 38.2358 81.7422 29.1211C81.7422 11.1278 72.5174 2.12999 54.0674 2.12988H38.5342V6.9043Z" fill="black"/>
</svg>
