<svg width="288" height="26" viewBox="0 0 288 26" fill="none" xmlns="http://www.w3.org/2000/svg">
<path d="M11.6492 24.6548C10.5216 25.2531 9.24446 25.5523 7.81776 25.5523C6.73622 25.5523 5.6892 25.3797 4.6767 25.0345C3.6642 24.7124 2.80127 24.2521 2.08791 23.6538L1.36305 25.5523H0.914332L0.465609 17.3027L0.776263 17.2336C1.12143 18.7984 1.46661 20.018 1.81178 20.8925C2.17996 21.7669 2.65169 22.5263 3.22698 23.1706C4.40056 24.4822 5.95383 25.1381 7.88679 25.1381C9.54361 25.1381 10.8323 24.7124 11.7527 23.8609C12.6962 22.9865 13.1679 21.8129 13.1679 20.3402C13.1679 19.3047 12.9148 18.4302 12.4085 17.7169C11.9253 17.0035 11.258 16.3937 10.4065 15.8875C9.55512 15.3812 8.35852 14.7944 6.81676 14.1271C5.55113 13.5748 4.49261 13.0341 3.64118 12.5048C2.78976 11.9525 2.07641 11.2507 1.50112 10.3993C0.948849 9.52483 0.672712 8.4663 0.672712 7.22368C0.672712 5.95806 0.97186 4.8305 1.57016 3.84101C2.19147 2.8285 3.03138 2.04612 4.08991 1.49384C5.17144 0.918557 6.39105 0.630915 7.74872 0.630915C8.69219 0.630915 9.56662 0.791995 10.372 1.11415C11.2004 1.43631 12.0864 1.96558 13.0298 2.70194L13.8583 1.04512H14.307L14.6521 8.56985L14.307 8.6734C13.9388 7.13164 13.4671 5.77397 12.8918 4.60038C11.7412 2.23021 9.98083 1.04512 7.61065 1.04512C6.18395 1.04512 5.04488 1.45933 4.19346 2.28774C3.34204 3.09314 2.91632 4.19768 2.91632 5.60138C2.91632 6.61388 3.14644 7.4653 3.60667 8.15565C4.08991 8.84599 4.74573 9.44429 5.57414 9.95054C6.42557 10.4568 7.62216 11.0666 9.16392 11.7799C10.5446 12.4013 11.6492 12.988 12.4776 13.5403C13.329 14.0926 14.0078 14.7829 14.5141 15.6113C15.0433 16.4167 15.308 17.4177 15.308 18.6143C15.308 19.949 14.9858 21.1456 14.3415 22.2041C13.6972 23.2396 12.7997 24.0565 11.6492 24.6548ZM35.8036 3.28873C35.8036 2.73646 35.7346 2.35677 35.5965 2.14967C35.4584 1.94257 35.1823 1.8045 34.7681 1.73546L32.3174 1.45933V1.18319H39.8766V1.45933L37.3914 1.73546C36.9772 1.8045 36.701 1.94257 36.563 2.14967C36.4249 2.35677 36.3559 2.73646 36.3559 3.28873V16.5433C36.3559 17.993 36.2408 19.2011 36.0107 20.1676C35.8036 21.1341 35.4699 21.9625 35.0097 22.6528C34.3884 23.5503 33.537 24.2636 32.4554 24.7929C31.3739 25.2991 30.1773 25.5523 28.8656 25.5523C27.8071 25.5523 26.7601 25.3797 25.7246 25.0345C24.6891 24.6893 23.8261 24.2176 23.1358 23.6193C22.4225 22.998 21.9162 22.2041 21.6171 21.2376C21.3179 20.2712 21.1683 18.9365 21.1683 17.2336V1.73546L18.3379 1.45933V1.18319H26.8291V1.45933L23.8261 1.73546V18.3727C23.8261 20.0525 23.9757 21.3412 24.2749 22.2386C24.597 23.1361 25.1263 23.8034 25.8627 24.2406C26.2539 24.4707 26.7371 24.6548 27.3124 24.7929C27.8877 24.931 28.486 25 29.1073 25C30.2578 25 31.3164 24.7699 32.2828 24.3097C33.2493 23.8494 34.0202 23.1936 34.5955 22.3422C35.0327 21.6979 35.3434 20.95 35.5274 20.0986C35.7115 19.2241 35.8036 18.0966 35.8036 16.7159V3.28873ZM66.111 1.73546V24.4477L69.114 24.7239V25H60.6227V24.7239L63.4531 24.4477V3.4268H63.3151L54.9965 25.5523H54.6513L45.3662 3.39228H45.2281V22.8945C45.2281 23.4467 45.2971 23.8379 45.4352 24.068C45.5733 24.2751 45.8494 24.4017 46.2636 24.4477L48.7143 24.7239V25H41.1551V24.7239L43.6403 24.4477C44.0545 24.4017 44.3307 24.2751 44.4687 24.068C44.6068 23.8379 44.6758 23.4467 44.6758 22.8945V2.18419C44.5148 1.90805 44.3077 1.72396 44.0545 1.63191C43.8244 1.51685 43.4792 1.45933 43.019 1.45933H41.4312V1.18319H47.3337L55.8249 21.4447H55.9629L63.5567 1.18319H69.114V1.45933L66.111 1.73546ZM96.1786 1.73546V24.4477L99.1816 24.7239V25H90.6904V24.7239L93.5208 24.4477V3.4268H93.3827L85.0641 25.5523H84.7189L75.4338 3.39228H75.2958V22.8945C75.2958 23.4467 75.3648 23.8379 75.5029 24.068C75.6409 24.2751 75.9171 24.4017 76.3313 24.4477L78.782 24.7239V25H71.2227V24.7239L73.708 24.4477C74.1222 24.4017 74.3983 24.2751 74.5364 24.068C74.6744 23.8379 74.7435 23.4467 74.7435 22.8945V2.18419C74.5824 1.90805 74.3753 1.72396 74.1222 1.63191C73.8921 1.51685 73.5469 1.45933 73.0867 1.45933H71.4989V1.18319H77.4013L85.8925 21.4447H86.0306L93.6243 1.18319H99.1816V1.45933L96.1786 1.73546ZM101.774 1.18319H110.092V1.45933L107.262 1.73546V24.4477L110.092 24.7239V25H101.774V24.7239L104.604 24.4477V1.73546L101.774 1.45933V1.18319ZM121.458 24.4477V1.56288H116.902C116.35 1.56288 115.947 1.65492 115.694 1.83901C115.441 2.00009 115.199 2.34526 114.969 2.87453L112.587 8.19016L112.311 8.12113L113.657 0.630915H113.865C114.371 0.861029 114.797 1.0106 115.142 1.07964C115.51 1.14867 115.97 1.18319 116.522 1.18319H129.811C130.364 1.18319 130.812 1.14867 131.158 1.07964C131.526 1.0106 131.963 0.861029 132.469 0.630915H132.676L133.436 8.12113L133.16 8.19016L131.02 2.87453C130.812 2.34526 130.582 2.00009 130.329 1.83901C130.099 1.65492 129.708 1.56288 129.156 1.56288H124.116V24.4477L127.844 24.7239V25H117.731V24.7239L121.458 24.4477ZM155.073 12.4358C157.075 12.7119 158.605 13.3677 159.664 14.4032C160.722 15.4388 161.252 16.7964 161.252 18.4763C161.252 20.3172 160.607 21.8704 159.319 23.1361C158.053 24.3787 156.097 25 153.451 25H143.268V24.7239L146.099 24.4477V1.73546L143.268 1.45933V1.18319H151.863C154.578 1.18319 156.649 1.66643 158.076 2.63291C159.503 3.59939 160.216 5.00308 160.216 6.844C160.216 8.31673 159.768 9.53633 158.87 10.5028C157.973 11.4693 156.707 12.0676 155.073 12.2977V12.4358ZM148.757 1.59739V12.1941H152.761C154.302 12.1941 155.407 11.7454 156.074 10.848C156.765 9.95054 157.11 8.61587 157.11 6.844C157.11 3.34626 155.326 1.59739 151.76 1.59739H148.757ZM152.622 24.5858C156.189 24.5858 157.973 22.5838 157.973 18.5798C157.973 16.4858 157.524 14.967 156.626 14.0236C155.729 13.0801 154.394 12.6084 152.622 12.6084H148.757V24.5858H152.622ZM181.625 3.28873C181.625 2.73646 181.556 2.35677 181.418 2.14967C181.28 1.94257 181.004 1.8045 180.589 1.73546L178.139 1.45933V1.18319H185.698V1.45933L183.213 1.73546C182.799 1.8045 182.522 1.94257 182.384 2.14967C182.246 2.35677 182.177 2.73646 182.177 3.28873V16.5433C182.177 17.993 182.062 19.2011 181.832 20.1676C181.625 21.1341 181.291 21.9625 180.831 22.6528C180.21 23.5503 179.358 24.2636 178.277 24.7929C177.195 25.2991 175.999 25.5523 174.687 25.5523C173.628 25.5523 172.581 25.3797 171.546 25.0345C170.51 24.6893 169.647 24.2176 168.957 23.6193C168.244 22.998 167.738 22.2041 167.438 21.2376C167.139 20.2712 166.99 18.9365 166.99 17.2336V1.73546L164.159 1.45933V1.18319H172.65V1.45933L169.647 1.73546V18.3727C169.647 20.0525 169.797 21.3412 170.096 22.2386C170.418 23.1361 170.948 23.8034 171.684 24.2406C172.075 24.4707 172.558 24.6548 173.134 24.7929C173.709 24.931 174.307 25 174.929 25C176.079 25 177.138 24.7699 178.104 24.3097C179.071 23.8494 179.842 23.1936 180.417 22.3422C180.854 21.6979 181.165 20.95 181.349 20.0986C181.533 19.2241 181.625 18.0966 181.625 16.7159V3.28873ZM190.29 24.4477V1.73546L187.46 1.45933V1.18319H195.951V1.45933L192.948 1.73546V24.5858H200.576C201.128 24.5858 201.531 24.5053 201.784 24.3442C202.037 24.1601 202.268 23.8149 202.475 23.3087L204.822 17.4062L205.236 17.4753L204.373 25H187.46V24.7239L190.29 24.4477ZM210.414 24.4477V1.73546L207.583 1.45933V1.18319H216.075V1.45933L213.072 1.73546V24.5858H220.7C221.252 24.5858 221.655 24.5053 221.908 24.3442C222.161 24.1601 222.391 23.8149 222.598 23.3087L224.946 17.4062L225.36 17.4753L224.497 25H207.583V24.7239L210.414 24.4477ZM227.707 1.18319H236.026V1.45933L233.195 1.73546V24.4477L236.026 24.7239V25H227.707V24.7239L230.538 24.4477V1.73546L227.707 1.45933V1.18319ZM249.882 0.630915C251.884 0.630915 253.713 1.18319 255.37 2.28774C257.05 3.39228 258.362 4.89953 259.305 6.80948C260.272 8.69641 260.755 10.7905 260.755 13.0916C260.755 15.3927 260.272 17.4983 259.305 19.4082C258.362 21.2952 257.05 22.7909 255.37 23.8955C253.713 25 251.884 25.5523 249.882 25.5523C247.88 25.5523 246.039 25 244.359 23.8955C242.702 22.7909 241.391 21.2952 240.424 19.4082C239.481 17.4983 239.009 15.3927 239.009 13.0916C239.009 10.7905 239.481 8.69641 240.424 6.80948C241.391 4.89953 242.702 3.39228 244.359 2.28774C246.039 1.18319 247.88 0.630915 249.882 0.630915ZM242.323 13.0916C242.323 16.9345 242.979 19.903 244.29 21.997C245.602 24.068 247.466 25.1036 249.882 25.1036C252.298 25.1036 254.162 24.068 255.474 21.997C256.785 19.903 257.441 16.9345 257.441 13.0916C257.441 9.24869 256.785 6.28022 255.474 4.18618C254.162 2.09214 252.298 1.04512 249.882 1.04512C247.466 1.04512 245.602 2.09214 244.29 4.18618C242.979 6.28022 242.323 9.24869 242.323 13.0916ZM287.144 1.18319V1.45933L284.659 1.73546C284.106 1.8045 283.738 1.94257 283.554 2.14967C283.37 2.35677 283.278 2.73646 283.278 3.28873V25.5523H282.933L267.434 3.56487H267.296V22.8945C267.296 23.4467 267.365 23.8379 267.504 24.068C267.642 24.2751 267.918 24.4017 268.332 24.4477L270.783 24.7239V25H263.223V24.7239L265.709 24.4477C266.123 24.4017 266.399 24.2751 266.537 24.068C266.675 23.8379 266.744 23.4467 266.744 22.8945V2.80549L266.606 2.59839C266.284 2.13816 265.973 1.83901 265.674 1.70095C265.398 1.53987 264.984 1.45933 264.432 1.45933H263.845V1.18319H268.988L282.588 20.2366H282.726V3.28873C282.726 2.73646 282.657 2.34526 282.518 2.11515C282.38 1.88504 282.104 1.75847 281.69 1.73546L278.894 1.45933V1.18319H287.144Z" fill="black"/>
</svg>
