<svg width="128" height="128" viewBox="0 0 128 128" fill="none" xmlns="http://www.w3.org/2000/svg">
<rect width="128" height="128" fill="white"/>
<path fill-rule="evenodd" clip-rule="evenodd" d="M65.4606 24C74.5821 24.0001 81.5394 25.6031 86.3321 28.8088C91.1247 32.0146 93.5214 36.6708 93.5214 42.777C93.5213 47.6618 92.013 51.7071 88.9983 54.9128C85.9835 58.1184 81.7322 60.1037 76.2439 60.867V61.3248C82.9692 62.2407 88.1098 64.416 91.6657 67.8508C95.2216 71.2855 96.9999 75.7887 97 81.3605C97 87.4667 94.8353 92.6192 90.5064 96.8172C86.2548 100.939 79.6834 103 70.7936 103H36.5874V102.084L46.096 101.168V97.8511C45.1816 97.6555 44.2752 97.4235 43.3778 97.1522C40.1614 96.2444 37.4196 94.9472 35.1535 93.2614L32.8514 98.6111H31.425L30 75.366L30.9874 75.1714C32.0839 79.5803 33.1799 83.0172 34.2764 85.4811C35.446 87.9449 36.9448 90.0846 38.7722 91.9C40.8417 93.9515 43.2833 95.4322 46.096 96.3449V64.7509C43.8237 63.769 41.8207 62.8014 40.0882 61.8462C37.3836 60.2901 35.1171 58.3129 33.2896 55.914C31.5352 53.4501 30.6577 50.4668 30.6577 46.9656C30.6577 43.3995 31.6085 40.2216 33.509 37.4335C35.4827 34.5808 38.1514 32.3768 41.5139 30.8207C42.9631 30.1369 44.4907 29.5984 46.096 29.203V25.8317L36.5874 24.9156V24H65.4606ZM62.5579 61.8972C64.7326 62.8873 66.6001 63.8422 68.1591 64.7641C70.8639 66.3202 73.021 68.2657 74.6292 70.5999C76.3105 72.8693 77.1508 75.69 77.1508 79.0615C77.1508 82.8221 76.128 86.1942 74.0813 89.1767C72.0345 92.0944 69.1828 94.3965 65.5279 96.0824C62.3913 97.5585 58.8901 98.3879 55.0249 98.5715V101.626H68.0107C79.9926 101.626 85.9839 94.9853 85.984 81.7043C85.9839 74.7588 84.4767 69.7209 81.4621 66.5914C78.4473 63.462 73.963 61.8972 68.0107 61.8972H62.5579ZM46.0979 73.1098C49.8716 74.4859 52.3644 75.4195 55.0249 76.4074V97.4122C59.5961 97.2084 63.207 96.0193 65.857 93.8451C68.8539 91.3813 70.3527 88.0746 70.3528 83.9252C70.3528 81.0075 69.5485 78.5428 67.9403 76.5328C66.4053 74.5229 64.2851 72.8046 61.5806 71.3782C59.8503 70.4657 57.671 69.4603 55.0433 68.3621V68.357L46.0979 64.7427V73.1098ZM55.0249 28.4518C57.309 28.6041 59.4575 29.0362 61.4702 29.7502C64.1019 30.658 66.9168 32.1492 69.914 34.2241L72.5459 29.5563H73.9709L75.0675 50.7588L73.9709 51.0503C72.8013 46.7061 71.3026 42.8806 69.4751 39.5738C66.2096 33.6072 61.398 30.3075 55.0401 29.6715C51.5433 29.5856 48.9288 29.7701 46.0915 30.5997L46.0909 30.6003C44.4866 31.1789 43.0701 31.9978 41.8424 33.0573C39.1379 35.3266 37.7855 38.4391 37.7854 42.3941C37.7855 45.247 38.5165 47.6468 39.9785 49.592C41.4748 51.4879 43.4932 53.1356 46.0313 54.5387V54.5413L46.0554 54.552C46.069 54.5595 46.0823 54.5678 46.096 54.5753V54.5709L55.0401 58.7217C55.8674 59.072 56.731 59.4341 57.6327 59.8041C58.2374 60.0455 58.8257 60.2855 59.397 60.5232H68.475C73.654 60.5232 77.3646 59.0347 79.6064 56.0582C81.9255 53.0814 83.085 48.6541 83.085 42.777C83.085 31.1751 77.0943 25.3734 65.1125 25.3733H55.0249V28.4518Z" fill="black"/>
</svg>
