<svg width="16" height="16" viewBox="0 0 16 16" fill="none" xmlns="http://www.w3.org/2000/svg">
<rect width="16" height="16" fill="white"/>
<path fill-rule="evenodd" clip-rule="evenodd" d="M8.29263 2C9.65405 2.00001 10.6925 2.24351 11.4078 2.73046C12.1231 3.21741 12.4808 3.92468 12.4808 4.8522C12.4808 5.5942 12.2557 6.20867 11.8057 6.69561C11.3557 7.18254 10.7212 7.48411 9.90208 7.60005V7.66959C10.9059 7.80872 11.6731 8.13914 12.2038 8.66087C12.7346 9.1826 13 9.86664 13 10.713C13 11.6405 12.6769 12.4232 12.0308 13.0608C11.3962 13.6869 10.4154 14 9.0886 14H3.9832V13.8609L5.40239 13.7218V13.2179C5.2659 13.1882 5.13062 13.1529 4.99669 13.1117C4.51662 12.9738 4.10741 12.7768 3.76918 12.5207L3.42558 13.3333H3.21269L3 9.80242L3.14738 9.77287C3.31104 10.4426 3.47461 10.9646 3.63827 11.3389C3.81284 11.7132 4.03653 12.0382 4.30929 12.3139C4.61816 12.6255 4.98259 12.8505 5.40239 12.9891V8.19C5.06324 8.04087 4.76428 7.89388 4.5057 7.74878C4.10203 7.51241 3.76374 7.21208 3.49098 6.84769C3.22914 6.47344 3.09817 6.02027 3.09816 5.48845C3.09817 4.94676 3.24007 4.46404 3.52374 4.04054C3.81832 3.60721 4.21662 3.27242 4.71849 3.03605C4.93479 2.93219 5.16279 2.85038 5.40239 2.79033V2.27824L3.9832 2.13907V2H8.29263ZM7.85939 7.75653C8.18397 7.90693 8.4627 8.05198 8.6954 8.19201C9.09909 8.42839 9.42104 8.7239 9.66108 9.07847C9.91202 9.42318 10.0374 9.85165 10.0374 10.3638C10.0374 10.935 9.88477 11.4472 9.5793 11.9003C9.2738 12.3435 8.84818 12.6931 8.30266 12.9492C7.83452 13.1734 7.31195 13.2994 6.73506 13.3273V13.7913H8.67325C10.4616 13.7913 11.3558 12.7826 11.3558 10.7652C11.3558 9.71019 11.1308 8.94494 10.6809 8.46958C10.2309 7.99423 9.56164 7.75653 8.67325 7.75653H7.85939ZM5.40267 9.45972C5.96592 9.66875 6.33797 9.81055 6.73506 9.96063V13.1512C7.41733 13.1203 7.95627 12.9396 8.35179 12.6094C8.79909 12.2351 9.02279 11.7328 9.02281 11.1026C9.02281 10.6594 8.90276 10.285 8.66274 9.97966C8.43362 9.67436 8.11718 9.41336 7.71352 9.19669C7.45527 9.05808 7.13 8.90537 6.7378 8.73854V8.73777L5.40267 8.18876V9.45972ZM6.73506 2.67623C7.07597 2.69936 7.39665 2.76499 7.69705 2.87345C8.08983 3.01134 8.50998 3.23786 8.95731 3.55302L9.35014 2.84399H9.56283L9.72649 6.06463L9.56283 6.10891C9.38826 5.44903 9.16457 4.86794 8.89181 4.36564C8.40442 3.45932 7.68627 2.95811 6.73733 2.86149C6.21541 2.84844 5.8252 2.87648 5.40172 3.00248L5.40163 3.00257C5.16219 3.09046 4.95077 3.21485 4.76752 3.37579C4.36386 3.7205 4.16201 4.19329 4.162 4.79405C4.16201 5.2274 4.27112 5.59192 4.48933 5.88739C4.71266 6.17538 5.01392 6.42566 5.39273 6.6388V6.63918L5.39633 6.6408C5.39836 6.64195 5.40035 6.64321 5.40239 6.64434V6.64367L6.73733 7.27418C6.86081 7.32739 6.9897 7.38239 7.12428 7.4386C7.21454 7.47526 7.30234 7.51172 7.38762 7.54783H8.74253C9.51553 7.54783 10.0693 7.32173 10.4039 6.86959C10.7501 6.41743 10.9231 5.74493 10.9231 4.8522C10.9231 3.08989 10.029 2.20862 8.24066 2.20861H6.73506V2.67623Z" fill="black"/>
</svg>
