<svg width="32" height="32" viewBox="0 0 32 32" fill="none" xmlns="http://www.w3.org/2000/svg">
<rect width="32" height="32" fill="white"/>
<path fill-rule="evenodd" clip-rule="evenodd" d="M16.4682 6C18.6465 6.00001 20.3079 6.40585 21.4524 7.21743C22.5969 8.02902 23.1693 9.20781 23.1693 10.7537C23.1693 11.9903 22.8091 13.0144 22.0891 13.826C21.3692 14.6376 20.354 15.1402 19.0433 15.3334V15.4493C20.6494 15.6812 21.877 16.2319 22.7261 17.1015C23.5753 17.971 24 19.1111 24 20.5216C24 22.0675 23.4831 23.3719 22.4493 24.4347C21.434 25.4782 19.8647 26 17.7418 26H9.57312V25.7682L11.8438 25.5363V24.6965C11.6254 24.647 11.409 24.5882 11.1947 24.5195C10.4266 24.2897 9.77186 23.9613 9.23069 23.5345L8.68092 24.8889H8.34031L8 19.004L8.23581 18.9548C8.49766 20.071 8.75938 20.9411 9.02123 21.5648C9.30054 22.1886 9.65845 22.7303 10.0949 23.1899C10.5891 23.7092 11.1721 24.0841 11.8438 24.3152V16.3167C11.3012 16.0681 10.8228 15.8231 10.4091 15.5813C9.76325 15.1874 9.22199 14.6868 8.78557 14.0795C8.36662 13.4557 8.15707 12.7005 8.15705 11.8141C8.15706 10.9113 8.38411 10.1067 8.83798 9.4009C9.30931 8.67868 9.9466 8.1207 10.7496 7.72675C11.0957 7.55365 11.4605 7.41731 11.8438 7.31722V6.46373L9.57312 6.23179V6H16.4682ZM15.775 15.5942C16.2944 15.8449 16.7403 16.0866 17.1126 16.32C17.7585 16.714 18.2737 17.2065 18.6577 17.7975C19.0592 18.372 19.2599 19.0861 19.2599 19.9396C19.2599 20.8917 19.0156 21.7454 18.5269 22.5004C18.0381 23.2391 17.3571 23.8219 16.4843 24.2487C15.7352 24.6224 14.8991 24.8324 13.9761 24.8789V25.6522H17.0772C19.9385 25.6522 21.3693 23.971 21.3693 20.6087C21.3693 18.8503 21.0094 17.5749 20.2895 16.7826C19.5695 15.9904 18.4986 15.5942 17.0772 15.5942H15.775ZM11.8443 18.4329C12.7455 18.7812 13.3408 19.0176 13.9761 19.2677V24.5854C15.0677 24.5338 15.93 24.2327 16.5629 23.6823C17.2785 23.0586 17.6365 22.2214 17.6365 21.1709C17.6365 20.4323 17.4444 19.8083 17.0604 19.2994C16.6938 18.7906 16.1875 18.3556 15.5416 17.9945C15.1284 17.7635 14.608 17.5089 13.9805 17.2309V17.2296L11.8443 16.3146V18.4329ZM13.9761 7.12704C14.5216 7.1656 15.0346 7.27498 15.5153 7.45575C16.1437 7.68556 16.816 8.0631 17.5317 8.58837L18.1602 7.40665H18.5005L18.7624 12.7744L18.5005 12.8482C18.2212 11.7484 17.8633 10.7799 17.4269 9.94274C16.6471 8.43221 15.498 7.59685 13.9797 7.43582C13.1447 7.41407 12.5203 7.46079 11.8428 7.6708L11.8426 7.67096C11.4595 7.81744 11.1212 8.02475 10.828 8.29298C10.1822 8.8675 9.85922 9.65548 9.85921 10.6567C9.85922 11.379 10.0338 11.9865 10.3829 12.479C10.7403 12.959 11.2223 13.3761 11.8284 13.7313V13.732L11.8341 13.7347C11.8374 13.7366 11.8406 13.7387 11.8438 13.7406V13.7395L13.9797 14.7903C14.1773 14.879 14.3835 14.9706 14.5989 15.0643C14.7433 15.1254 14.8837 15.1862 15.0202 15.2464H17.1881C18.4248 15.2464 19.311 14.8695 19.8463 14.116C20.4001 13.3624 20.677 12.2415 20.677 10.7537C20.677 7.81649 19.2464 6.3477 16.3851 6.34768H13.9761V7.12704Z" fill="black"/>
</svg>
