<svg width="512" height="512" viewBox="0 0 512 512" fill="none" xmlns="http://www.w3.org/2000/svg">
<rect width="512" height="512" fill="white"/>
<path fill-rule="evenodd" clip-rule="evenodd" d="M264.308 78C305.287 78.0002 336.543 85.2445 358.074 99.7311C379.605 114.218 390.372 135.259 390.372 162.853C390.372 184.928 383.596 203.208 370.052 217.694C356.508 232.181 337.409 241.152 312.753 244.602V246.67C342.966 250.809 366.061 260.639 382.036 276.161C398.01 291.682 406 312.032 406 337.211C406 364.805 396.275 388.089 376.827 407.06C357.727 425.686 328.204 435 288.267 435H134.594V430.863L177.312 426.722V411.732C173.204 410.848 169.132 409.8 165.1 408.574C150.65 404.472 138.333 398.61 128.152 390.991L117.81 415.167H111.402L105 310.122L109.436 309.243C114.362 329.167 119.286 344.698 124.212 355.832C129.466 366.966 136.2 376.635 144.41 384.839C153.707 394.11 164.676 400.801 177.312 404.926V262.153C167.103 257.716 158.105 253.343 150.322 249.026C138.171 241.994 127.989 233.059 119.779 222.219C111.897 211.085 107.955 197.603 107.955 181.781C107.955 165.666 112.226 151.305 120.764 138.706C129.631 125.814 141.62 115.855 156.727 108.823C163.237 105.733 170.1 103.299 177.312 101.512V86.2776L134.594 82.1374V78H264.308ZM251.268 249.257C261.038 253.731 269.427 258.046 276.431 262.212C288.583 269.245 298.273 278.036 305.499 288.584C313.052 298.84 316.827 311.586 316.827 326.822C316.827 343.816 312.232 359.055 303.037 372.533C293.841 385.718 281.03 396.121 264.61 403.739C250.519 410.41 234.79 414.158 217.425 414.988V428.791H275.765C329.594 428.791 356.51 398.781 356.51 338.765C356.51 307.378 349.739 284.612 336.195 270.47C322.651 256.328 302.505 249.257 275.765 249.257H251.268ZM177.32 299.927C194.274 306.145 205.473 310.364 217.425 314.829V409.749C237.962 408.828 254.184 403.454 266.089 393.629C279.553 382.495 286.286 367.552 286.287 348.801C286.287 335.616 282.673 324.478 275.448 315.395C268.552 306.312 259.027 298.547 246.877 292.102C239.104 287.978 229.313 283.435 217.508 278.472V278.449L177.32 262.116V299.927ZM217.425 98.1177C227.687 98.806 237.339 100.758 246.381 103.985C258.204 108.087 270.85 114.826 284.315 124.202L296.139 103.109H302.541L307.467 198.923L302.541 200.24C297.287 180.609 290.554 163.321 282.343 148.378C267.673 121.415 246.057 106.504 217.494 103.629C201.784 103.241 190.038 104.075 177.292 107.824L177.289 107.827C170.082 110.441 163.718 114.142 158.202 118.93C146.052 129.185 139.977 143.25 139.976 161.123C139.976 174.015 143.261 184.86 149.829 193.65C156.551 202.218 165.619 209.663 177.021 216.004V216.016L177.129 216.064C177.191 216.098 177.251 216.135 177.312 216.169V216.149L217.494 234.907C221.21 236.49 225.09 238.126 229.141 239.798C231.858 240.889 234.5 241.974 237.067 243.048H277.85C301.117 243.048 317.787 236.321 327.859 222.87C338.277 209.419 343.486 189.412 343.486 162.853C343.486 110.424 316.573 84.2064 262.744 84.206H217.425V98.1177Z" fill="black"/>
</svg>
