<svg width="28" height="12" viewBox="0 0 28 12" fill="none" xmlns="http://www.w3.org/2000/svg">
<path d="M5.92198 2.14616C6.23297 1.75718 6.44401 1.23489 6.38835 0.701172C5.9331 0.723809 5.37756 1.00151 5.05592 1.3908C4.76713 1.72417 4.51153 2.26833 4.57817 2.77967C5.0892 2.824 5.59977 2.52423 5.92198 2.14616Z" fill="#000008"/>
<path d="M6.38256 2.87952C5.64041 2.83531 5.0094 3.30073 4.65498 3.30073C4.30037 3.30073 3.75764 2.9018 3.17064 2.91255C2.40662 2.92377 1.6977 3.35576 1.30999 4.04281C0.51254 5.41727 1.09954 7.45606 1.87502 8.57548C2.25161 9.12929 2.70546 9.73907 3.30349 9.71717C3.86852 9.695 4.08999 9.3513 4.77681 9.3513C5.46312 9.3513 5.66262 9.71717 6.26074 9.70608C6.881 9.69499 7.26878 9.152 7.64536 8.59765C8.07738 7.96633 8.25423 7.35675 8.26536 7.32328C8.25423 7.3122 7.06931 6.85763 7.05832 5.4946C7.04714 4.35332 7.98862 3.81046 8.03293 3.7768C7.50127 2.99046 6.67055 2.9018 6.38256 2.87952Z" fill="#000008"/>
<path d="M12.8446 1.33498C14.4577 1.33498 15.5809 2.44687 15.5809 4.06571C15.5809 5.69032 14.4346 6.80799 12.8042 6.80799H11.0182V9.64818H9.72786V1.33497L12.8446 1.33498ZM11.0182 5.72488H12.4988C13.6223 5.72488 14.2617 5.12004 14.2617 4.07148C14.2617 3.02304 13.6223 2.42387 12.5046 2.42387H11.0182V5.72488Z" fill="#000008"/>
<path d="M15.918 7.92565C15.918 6.86554 16.7303 6.21458 18.1707 6.13391L19.8298 6.03601V5.5694C19.8298 4.89533 19.3746 4.49207 18.6143 4.49207C17.894 4.49207 17.4446 4.83766 17.3353 5.37927H16.16C16.2292 4.2846 17.1624 3.47807 18.6603 3.47807C20.1293 3.47807 21.0683 4.25582 21.0683 5.47139V9.64816H19.8758V8.6515H19.8471C19.4957 9.32558 18.7294 9.75184 17.9345 9.75184C16.7477 9.75184 15.918 9.01443 15.918 7.92565ZM19.8298 7.37837V6.90021L18.3376 6.99233C17.5944 7.04423 17.1739 7.37259 17.1739 7.89109C17.1739 8.42104 17.6118 8.76674 18.28 8.76674C19.1499 8.76674 19.8298 8.16757 19.8298 7.37837Z" fill="#000008"/>
<path d="M22.1942 11.8777V10.8695C22.2862 10.8925 22.4936 10.8925 22.5974 10.8925C23.1734 10.8925 23.4846 10.6506 23.6746 10.0284C23.6746 10.0169 23.7842 9.65972 23.7842 9.65394L21.5951 3.58753H22.943L24.4756 8.51904H24.4985L26.0311 3.58753H27.3445L25.0745 9.96498C24.5563 11.4341 23.9571 11.9065 22.7012 11.9065C22.5974 11.9065 22.2862 11.895 22.1942 11.8777Z" fill="#000008"/>
</svg>
