<svg width="20" height="19" viewBox="0 0 20 19" fill="none" xmlns="http://www.w3.org/2000/svg">
<g clip-path="url(#clip0_265_602)">
<g clip-path="url(#clip1_265_602)">
<g clip-path="url(#clip2_265_602)">
<path fill-rule="evenodd" clip-rule="evenodd" d="M13.4547 11.3409L13.4547 11.3408L13.4515 11.3395C13.4077 11.3206 13.3633 11.303 13.3181 11.2868L8.74908 9.4833L8.7487 9.48395C8.62362 9.42871 8.48549 9.39743 8.3398 9.39743C7.78267 9.39743 7.33101 9.84602 7.33101 10.3994C7.33101 10.6281 7.40907 10.8383 7.53898 11.0069L7.53837 11.0076L7.54626 11.0166C7.56935 11.0458 7.59371 11.0741 7.6199 11.1006L10.8957 14.8386L10.8958 14.8385C11.3042 15.2961 11.9001 15.5849 12.5642 15.5849C13.7954 15.5849 14.7934 14.5936 14.7934 13.3708C14.7934 12.4625 14.2425 11.6823 13.4547 11.3409ZM11.9497 3.80449C12.9857 3.48069 14.102 4.01547 14.443 4.9988C14.7841 5.98209 14.2208 7.04161 13.1847 7.36546C12.1489 7.68912 11.0326 7.15435 10.6914 6.17111C10.3505 5.18773 10.9138 4.12815 11.9497 3.80449ZM19.1204 5.00501C18.9697 4.79315 18.7507 4.65746 18.5129 4.5977L18.5128 4.59421L17.6195 4.36053C17.6066 4.31877 17.5982 4.27649 17.5841 4.23477C16.6566 1.49777 13.6211 0.00945371 10.8038 0.910537C9.34436 1.37723 8.2345 2.39569 7.6281 3.64753L6.01416 6.2074L2.18345 4.69867L2.18092 4.70146C1.93965 4.60367 1.66442 4.58218 1.3967 4.66776C0.805021 4.8571 0.483181 5.47646 0.677936 6.05143C0.706495 6.13543 0.746965 6.21197 0.792782 6.28394L0.786123 6.29158L4.78279 11.5726C4.7864 11.5773 4.78819 11.5826 4.7918 11.5872C4.79536 11.5922 4.80005 11.596 4.80385 11.6009L7.66322 15.6015C8.91265 17.8289 11.6158 19.1693 14.2252 18.3348C17.0423 17.4338 18.5744 14.4846 17.6469 11.7476C17.3582 10.8958 16.865 10.1652 16.2379 9.58962C17.0284 8.83593 17.5649 7.86343 17.7654 6.80811L18.6293 6.55901L18.6287 6.54959C18.7053 6.52074 18.7802 6.48582 18.8507 6.43851C19.3326 6.11501 19.4534 5.47329 19.1204 5.00501Z" fill="white"/>
</g>
</g>
</g>
<defs>
<clipPath id="clip0_265_602">
<rect width="18.6679" height="18.6679" fill="white" transform="translate(0.621094 0.288086)"/>
</clipPath>
<clipPath id="clip1_265_602">
<rect width="18.6679" height="18.6679" fill="white" transform="translate(0.621094 0.288086)"/>
</clipPath>
<clipPath id="clip2_265_602">
<rect width="18.6679" height="17.9499" fill="white" transform="translate(0.621094 0.647461)"/>
</clipPath>
</defs>
</svg>
