<svg width="36" height="36" viewBox="0 0 36 36" fill="none" xmlns="http://www.w3.org/2000/svg">
<path d="M18 36C27.9411 36 36 27.9411 36 18C36 8.05887 27.9411 0 18 0C8.05887 0 0 8.05887 0 18C0 27.9411 8.05887 36 18 36Z" fill="#F49B33"/>
<path d="M24.6317 14.3238C24.4557 12.0665 22.5193 11.2761 20.0687 11.0172L20.1239 7.89007L18.2221 7.859L18.1669 10.9033C17.6664 10.8929 17.1556 10.8964 16.6447 10.8964L16.7 7.83139L14.7981 7.79688L14.7429 10.924C14.3322 10.924 13.9249 10.9275 13.5314 10.9171V10.9068L10.9048 10.8619L10.8702 12.8949C10.8702 12.8949 12.2785 12.8914 12.2543 12.919C13.024 12.9328 13.2691 13.385 13.3347 13.7716L13.2725 17.3336C13.3243 17.3336 13.3934 17.337 13.4727 17.3509L13.2725 17.3474L13.1863 22.3384C13.1483 22.58 12.9999 22.9631 12.458 22.9562C12.4821 22.9769 11.0739 22.9321 11.0739 22.9321L10.6562 25.1963L13.1345 25.2412C13.5935 25.2515 14.0492 25.2653 14.4944 25.2757L14.4392 28.4373L16.341 28.4684L16.3962 25.3413C16.9174 25.3585 17.4248 25.3723 17.9184 25.3827L17.8632 28.496L19.765 28.5271L19.8202 25.3723C23.0233 25.2446 25.2772 24.4784 25.6085 21.4755C25.8743 19.0594 24.756 17.9583 22.9473 17.4924C24.0587 16.9539 24.7663 15.9771 24.6317 14.3238ZM21.8497 21.0406C21.8118 23.4049 17.7665 23.0632 16.4756 23.0425L16.5516 18.8523C17.8424 18.873 21.8946 18.5727 21.8497 21.0406ZM21.0697 15.1108C21.0317 17.2611 17.6595 16.9505 16.5861 16.9332L16.6516 13.133C17.7251 13.1503 21.1076 12.8672 21.0697 15.1108Z" fill="white"/>
</svg>
