<svg width="25" height="25" viewBox="0 0 25 25" fill="none" xmlns="http://www.w3.org/2000/svg">
<g clip-path="url(#clip0_251_533)">
<g clip-path="url(#clip1_251_533)">
<mask id="mask0_251_533" style="mask-type:luminance" maskUnits="userSpaceOnUse" x="0" y="0" width="25" height="25">
<path d="M25 0H0V25H25V0Z" fill="white"/>
</mask>
<g mask="url(#mask0_251_533)">
<path d="M12.5 2.34375C10.4913 2.34375 8.52768 2.9394 6.85749 4.05539C5.18731 5.17137 3.88556 6.75756 3.11685 8.61337C2.34815 10.4692 2.14702 12.5113 2.5389 14.4814C2.93079 16.4515 3.89807 18.2612 5.31845 19.6816C6.73883 21.1019 8.5485 22.0692 10.5186 22.4611C12.4887 22.853 14.5308 22.6519 16.3866 21.8832C18.2424 21.1144 19.8286 19.8127 20.9446 18.1425C22.0606 16.4723 22.6563 14.5087 22.6563 12.5C22.6534 9.80727 21.5825 7.22564 19.6784 5.32159C17.7744 3.41754 15.1927 2.34659 12.5 2.34375Z" fill="white"/>
</g>
</g>
<path d="M7.12571 12.6562L7.98935 11.7699L10.9893 14.7244L17.1939 8.54261L18.0803 9.42898L10.9893 16.4972L7.12571 12.6562Z" fill="black"/>
</g>
<defs>
<clipPath id="clip0_251_533">
<rect width="25" height="25" fill="white"/>
</clipPath>
<clipPath id="clip1_251_533">
<rect width="25" height="25" fill="white"/>
</clipPath>
</defs>
</svg>
