<svg width="24" height="24" viewBox="0 0 24 24" fill="none" xmlns="http://www.w3.org/2000/svg">
<path d="M20.2988 9.79586L12.7988 17.2959C12.6943 17.4007 12.5701 17.484 12.4334 17.5407C12.2966 17.5975 12.15 17.6267 12.002 17.6267C11.8539 17.6267 11.7073 17.5975 11.5705 17.5407C11.4338 17.484 11.3096 17.4007 11.2051 17.2959L3.70508 9.79586C3.49373 9.58451 3.375 9.29787 3.375 8.99898C3.375 8.7001 3.49373 8.41345 3.70508 8.20211C3.91642 7.99076 4.20307 7.87203 4.50195 7.87203C4.80084 7.87203 5.08748 7.99076 5.29883 8.20211L12.0029 14.9062L18.707 8.20117C18.9183 7.98983 19.2049 7.87109 19.5038 7.87109C19.8027 7.87109 20.0894 7.98983 20.3007 8.20117C20.512 8.41252 20.6308 8.69916 20.6308 8.99805C20.6308 9.29693 20.512 9.58358 20.3007 9.79492L20.2988 9.79586Z" fill="black"/>
</svg>
