<svg width="18" height="18" viewBox="0 0 18 18" fill="none" xmlns="http://www.w3.org/2000/svg">
<g clip-path="url(#clip0_265_598)">
<g clip-path="url(#clip1_265_598)">
<g clip-path="url(#clip2_265_598)">
<path fill-rule="evenodd" clip-rule="evenodd" d="M7.21029 1.67881C6.2081 2.20088 5.38817 2.64264 5.38834 2.66061C5.38879 2.70699 7.79363 3.92489 7.87899 3.92193C7.91782 3.92063 8.19949 3.79097 8.50489 3.63384L9.06025 3.34819L9.66677 3.65995L10.2733 3.97177L11.2665 3.52546C12.7631 2.85294 12.9186 2.77925 12.8942 2.75449C12.8619 2.72164 12.3251 2.43326 10.8687 1.66651C10.1648 1.29594 9.48166 0.932597 9.35051 0.859075C9.21938 0.785554 9.09418 0.726411 9.07231 0.727555C9.05045 0.7287 8.21251 1.15677 7.21029 1.67881ZM2.81468 3.95501L1.77141 4.4939V6.85896C1.77141 8.15976 1.78511 9.22401 1.80192 9.22401C1.81866 9.22401 2.33195 9.0015 2.94254 8.72956L4.05269 8.23511V5.74217L4.59519 6.03773C5.01323 6.26528 5.43152 6.49236 5.85006 6.71898L6.56242 7.10467L6.8794 6.96134C7.0782 6.8713 7.2766 6.78038 7.47459 6.6886C7.62759 6.61734 8.00318 6.44818 8.3092 6.31261C8.61522 6.17697 8.89849 6.04058 8.93866 6.0095C8.99202 5.9682 8.34137 5.60865 6.53209 4.67955C5.16828 3.97921 4.00869 3.40842 3.95521 3.41116C3.90173 3.41389 3.3885 3.6586 2.81468 3.95501ZM13.0822 4.10634C12.3717 4.42711 11.7899 4.70237 11.7892 4.71807C11.7886 4.73375 12.1758 4.96401 12.6498 5.22969C13.1238 5.49543 13.5116 5.72705 13.5116 5.7445C13.5116 5.7619 13.0922 5.96512 12.5796 6.19618C12.067 6.42719 10.7713 7.01233 9.70023 7.49652L6.11139 9.11872C5.20862 9.52683 4.39488 9.89467 4.30308 9.93625C2.45913 10.771 1.9523 11.0026 1.88269 11.0424C1.8127 11.0824 1.79685 11.315 1.78439 12.4822L1.76953 13.8743L2.70247 14.3496L3.63539 14.825L4.92903 14.2411C5.64056 13.9201 6.22267 13.6405 6.22267 13.6199C6.22267 13.5994 6.09119 13.5137 5.93057 13.4295C5.76986 13.3452 5.43813 13.1587 5.19331 13.015C4.94851 12.8711 4.70441 12.7392 4.65082 12.7217C4.59725 12.7043 4.55419 12.6738 4.55506 12.6538C4.55595 12.634 5.12561 12.3634 5.8209 12.0525C7.17135 11.4487 8.20482 10.9833 10.4235 9.97998C11.4157 9.53142 12.4079 9.08312 13.4003 8.6351C14.2725 8.24143 15.2865 7.78166 15.6538 7.61339L16.3215 7.30744L16.3363 5.89948L16.3512 4.49157L15.405 4.00589C14.8845 3.73879 14.4397 3.5209 14.4164 3.5217C14.3931 3.52244 13.7927 3.7855 13.0822 4.10634ZM16.068 9.18574C15.9285 9.25385 15.6531 9.38137 15.4559 9.4691C15.2587 9.55682 14.8845 9.72566 14.6244 9.84435L14.1515 10.0601L14.1407 11.2961C14.1347 11.9759 14.1097 12.5292 14.085 12.5256C14.0291 12.5172 13.1427 12.0626 12.2516 11.5852C11.6085 11.2406 11.5681 11.2269 11.417 11.3018C11.3296 11.3451 10.8075 11.5793 10.2566 11.8223C9.70577 12.0653 9.23713 12.28 9.21509 12.2994C9.1931 12.3188 10.3017 12.9197 11.6788 13.6348L14.1825 14.9349L15.252 14.3816C15.8402 14.0774 16.3403 13.7998 16.3634 13.7649C16.4152 13.6864 16.4108 9.05114 16.3589 9.05741C16.3383 9.05987 16.2074 9.11764 16.068 9.18574ZM10.1454 14.6264C9.95983 14.7062 9.77436 14.7861 9.58894 14.866C9.02902 15.1083 9.13875 15.1163 8.47262 14.7847C8.02895 14.5638 7.8377 14.4957 7.75469 14.5288C7.69242 14.5536 7.15655 14.7947 6.56376 15.0645C5.971 15.3344 5.46545 15.5552 5.44031 15.5552C5.19161 15.5552 5.60507 15.8022 7.20051 16.607L9.0716 17.5507L9.85885 17.1621C10.2919 16.9483 11.1652 16.5202 11.7997 16.2108C12.4341 15.9013 12.9453 15.6401 12.9357 15.6302C12.9261 15.6204 12.3945 15.3474 11.7544 15.0236L10.5905 14.4349L10.1454 14.6264Z" fill="white"/>
</g>
</g>
</g>
<defs>
<clipPath id="clip0_265_598">
<rect width="16.8418" height="16.8418" fill="white" transform="translate(0.667969 0.717773)"/>
</clipPath>
<clipPath id="clip1_265_598">
<rect width="16.8418" height="16.8418" fill="white" transform="translate(0.667969 0.717773)"/>
</clipPath>
<clipPath id="clip2_265_598">
<rect width="14.6457" height="16.8418" fill="white" transform="translate(1.76953 0.717773)"/>
</clipPath>
</defs>
</svg>
