<svg width="36" height="36" viewBox="0 0 36 36" fill="none" xmlns="http://www.w3.org/2000/svg">
<path d="M18 36C27.9411 36 36 27.9411 36 18C36 8.05887 27.9411 0 18 0C8.05887 0 0 8.05887 0 18C0 27.9411 8.05887 36 18 36Z" fill="#627EEA"/>
<path d="M18.5625 4.49707V14.4763L26.9966 18.2456L18.5625 4.49707Z" fill="white" fill-opacity="0.6"/>
<path d="M18.5591 4.49707L10.125 18.2456L18.5591 14.4763V4.49707Z" fill="white"/>
<path d="M18.5625 24.7115V31.4923L27.0015 19.8154L18.5625 24.7115Z" fill="white" fill-opacity="0.6"/>
<path d="M18.5591 31.4923V24.7115L10.125 19.8154L18.5591 31.4923Z" fill="white"/>
<path d="M18.5625 23.142L26.9966 18.2458L18.5625 14.4766V23.142Z" fill="white" fill-opacity="0.2"/>
<path d="M10.125 18.2458L18.5591 23.142V14.4766L10.125 18.2458Z" fill="white" fill-opacity="0.6"/>
</svg>
