<svg width="18" height="18" viewBox="0 0 18 18" fill="none" xmlns="http://www.w3.org/2000/svg">
<path d="M14.6619 8.24725C14.3207 7.47918 13.8246 6.7898 13.2047 6.22224L12.6932 5.75291C12.6758 5.73741 12.6549 5.72641 12.6323 5.72088C12.6097 5.71534 12.586 5.71545 12.5635 5.72117C12.5409 5.7269 12.5201 5.73808 12.5029 5.75373C12.4856 5.76937 12.4725 5.78901 12.4646 5.81092L12.2361 6.46658C12.0937 6.87791 11.8318 7.29803 11.4609 7.71111C11.4363 7.73748 11.4082 7.74451 11.3889 7.74627C11.3695 7.74803 11.3396 7.74451 11.3133 7.7199C11.2887 7.69881 11.2764 7.66717 11.2781 7.63553C11.3432 6.57732 11.0268 5.38377 10.3342 4.08474C9.76113 3.00545 8.96484 2.16346 7.96992 1.57635L7.24395 1.1492C7.14902 1.09295 7.02773 1.16678 7.03301 1.27752L7.07168 2.12127C7.09805 2.69783 7.03125 3.2076 6.87305 3.63123C6.67969 4.14978 6.40195 4.63142 6.04688 5.06385C5.79977 5.36437 5.51969 5.63619 5.21191 5.8742C4.47065 6.44402 3.86791 7.17416 3.44883 8.00994C3.03077 8.85301 2.81301 9.78122 2.8125 10.7222C2.8125 11.5519 2.97598 12.3553 3.29941 13.1129C3.61172 13.8423 4.06241 14.5043 4.62656 15.0623C5.19609 15.6248 5.85703 16.0678 6.59355 16.3754C7.35645 16.6953 8.16504 16.857 9 16.857C9.83496 16.857 10.6436 16.6953 11.4064 16.3771C12.1412 16.0713 12.8093 15.6253 13.3734 15.064C13.943 14.5015 14.3895 13.8441 14.7006 13.1146C15.0235 12.3591 15.1892 11.5457 15.1875 10.724C15.1875 9.86619 15.0117 9.03299 14.6619 8.24725V8.24725ZM12.5332 14.2115C11.5893 15.1467 10.3359 15.6599 9 15.6599C7.66406 15.6599 6.41074 15.1467 5.4668 14.2115C4.52637 13.2781 4.00781 12.0406 4.00781 10.724C4.00781 9.95935 4.18008 9.22635 4.51934 8.54432C4.8498 7.8781 5.34199 7.28221 5.93965 6.82342C6.32081 6.53196 6.66652 6.19686 6.96973 5.82498C7.40918 5.28885 7.75371 4.69119 7.99277 4.04959C8.09084 3.78493 8.16209 3.5111 8.20547 3.23221C8.6291 3.62244 8.98418 4.09353 9.28125 4.64549C9.86836 5.74588 10.1391 6.72498 10.0863 7.55818C10.0737 7.75442 10.1058 7.95096 10.1801 8.13302C10.2544 8.31509 10.3689 8.47795 10.5152 8.60935C10.642 8.72387 10.7903 8.81205 10.9514 8.86878C11.1125 8.92551 11.2834 8.94966 11.4539 8.93982C11.8002 8.92225 12.1184 8.76932 12.3504 8.51092C12.5842 8.249 12.7863 7.98182 12.9551 7.70935C13.2012 8.024 13.4068 8.36678 13.5703 8.73592C13.8498 9.36521 13.9922 10.0349 13.9922 10.724C13.9922 12.0406 13.4736 13.2799 12.5332 14.2115Z" fill="#FF3333"/>
</svg>
