<svg width="29" height="13" viewBox="0 0 29 13" fill="none" xmlns="http://www.w3.org/2000/svg">
<path d="M13.7514 9.67827H12.703V1.52002H15.4825C16.1869 1.52002 16.7876 1.75483 17.279 2.22444C17.7814 2.69406 18.0326 3.26743 18.0326 3.94456C18.0326 4.63806 17.7814 5.21143 17.279 5.67559C16.793 6.13975 16.1924 6.3691 15.4825 6.3691H13.7514V9.67827ZM13.7514 2.52478V5.36979H15.5043C15.9193 5.36979 16.2688 5.22782 16.5418 4.94932C16.8203 4.67083 16.9623 4.33226 16.9623 3.95002C16.9623 3.57323 16.8203 3.24013 16.5418 2.96164C16.2688 2.67222 15.9248 2.53024 15.5043 2.53024H13.7514V2.52478Z" fill="#3C4043"/>
<path d="M20.7737 3.91179C21.5491 3.91179 22.1607 4.1193 22.6085 4.53431C23.0563 4.94932 23.2802 5.51723 23.2802 6.23804V9.67827H22.2809V8.90285H22.2372C21.8058 9.54175 21.227 9.85847 20.5062 9.85847C19.8891 9.85847 19.3758 9.67827 18.9608 9.3124C18.5458 8.94653 18.3383 8.4933 18.3383 7.94723C18.3383 7.3684 18.5567 6.9097 18.9936 6.57114C19.4304 6.22712 20.0147 6.05784 20.741 6.05784C21.3635 6.05784 21.8768 6.17251 22.2754 6.40186V6.16159C22.2754 5.79572 22.1334 5.48993 21.844 5.23327C21.5546 4.97662 21.216 4.85103 20.8283 4.85103C20.2441 4.85103 19.7799 5.09676 19.4413 5.59368L18.5185 5.01485C19.0263 4.27766 19.7799 3.91179 20.7737 3.91179ZM19.4195 7.96361C19.4195 8.23665 19.5342 8.46599 19.769 8.6462C19.9983 8.8264 20.2714 8.91923 20.5826 8.91923C21.0249 8.91923 21.4181 8.75541 21.7621 8.42777C22.1061 8.10013 22.2809 7.71788 22.2809 7.27557C21.9532 7.01892 21.5 6.88786 20.9157 6.88786C20.4898 6.88786 20.1348 6.99161 19.8509 7.19366C19.5615 7.40662 19.4195 7.66328 19.4195 7.96361Z" fill="#3C4043"/>
<path d="M28.9811 4.09205L25.4863 12.1302H24.4051L25.7048 9.31791L23.4004 4.09205H24.5416L26.2017 8.10018H26.2235L27.8399 4.09205H28.9811Z" fill="#3C4043"/>
<path d="M9.58108 5.70836C9.58108 5.36652 9.5505 5.03943 9.49371 4.72489H5.09898V6.52691L7.62999 6.52746C7.52733 7.12704 7.19696 7.63816 6.69076 7.97891V9.14804H8.19735C9.07706 8.33385 9.58108 7.13032 9.58108 5.70836Z" fill="#4285F4"/>
<path d="M6.69129 7.97896C6.27191 8.26182 5.73186 8.42728 5.10006 8.42728C3.8796 8.42728 2.84426 7.60491 2.47349 6.49639H0.919386V7.70211C1.68934 9.23 3.27183 10.2785 5.10006 10.2785C6.36365 10.2785 7.4252 9.8629 8.19788 9.14755L6.69129 7.97896Z" fill="#34A853"/>
<path d="M2.32709 5.60186C2.32709 5.29061 2.37897 4.98972 2.47344 4.70686V3.50114H0.919339C0.600984 4.13294 0.421875 4.84611 0.421875 5.60186C0.421875 6.35762 0.60153 7.07079 0.919339 7.70259L2.47344 6.49687C2.37897 6.21401 2.32709 5.91312 2.32709 5.60186Z" fill="#FABB05"/>
<path d="M5.10006 2.77597C5.78974 2.77597 6.40734 3.01351 6.89497 3.47767L8.2301 2.14363C7.4192 1.38842 6.36201 0.924805 5.10006 0.924805C3.27238 0.924805 1.68929 1.97325 0.919339 3.50114L2.47344 4.70686C2.84422 3.59834 3.8796 2.77597 5.10006 2.77597Z" fill="#E94235"/>
</svg>
