<svg width="17" height="17" viewBox="0 0 17 17" fill="none" xmlns="http://www.w3.org/2000/svg">
<path d="M8.40272 4.43152C10.6884 4.43152 12.5749 6.31809 12.5749 8.60374C12.5749 10.9257 10.6884 12.776 8.40272 12.776C6.08078 12.776 4.23049 10.9257 4.23049 8.60374C4.23049 6.31809 6.08078 4.43152 8.40272 4.43152ZM8.40272 11.3248C9.8902 11.3248 11.0875 10.1275 11.0875 8.60374C11.0875 7.11625 9.8902 5.91901 8.40272 5.91901C6.87895 5.91901 5.6817 7.11625 5.6817 8.60374C5.6817 10.1275 6.91523 11.3248 8.40272 11.3248ZM13.6996 4.2864C13.6996 4.8306 13.2643 5.26596 12.7201 5.26596C12.1759 5.26596 11.7405 4.8306 11.7405 4.2864C11.7405 3.74219 12.1759 3.30683 12.7201 3.30683C13.2643 3.30683 13.6996 3.74219 13.6996 4.2864ZM16.4569 5.26596C16.5295 6.60833 16.5295 10.6354 16.4569 11.9778C16.3844 13.2839 16.0941 14.4086 15.1508 15.3881C14.2075 16.3314 13.0466 16.6217 11.7405 16.6942C10.3981 16.7668 6.37103 16.7668 5.02866 16.6942C3.72257 16.6217 2.59788 16.3314 1.61832 15.3881C0.675035 14.4086 0.384793 13.2839 0.312233 11.9778C0.239672 10.6354 0.239672 6.60833 0.312233 5.26596C0.384793 3.95988 0.675035 2.79891 1.61832 1.85562C2.59788 0.912339 3.72257 0.622098 5.02866 0.549537C6.37103 0.476977 10.3981 0.476977 11.7405 0.549537C13.0466 0.622098 14.2075 0.912339 15.1508 1.85562C16.0941 2.79891 16.3844 3.95988 16.4569 5.26596ZM14.7155 13.3927C15.1508 12.3406 15.042 9.80099 15.042 8.60374C15.042 7.44277 15.1508 4.90316 14.7155 3.81475C14.4252 3.12543 13.881 2.54495 13.1917 2.29099C12.1033 1.85562 9.56368 1.96447 8.40272 1.96447C7.20547 1.96447 4.66586 1.85562 3.61373 2.29099C2.88813 2.58123 2.34392 3.12543 2.05368 3.81475C1.61832 4.90316 1.72716 7.44277 1.72716 8.60374C1.72716 9.80099 1.61832 12.3406 2.05368 13.3927C2.34392 14.1183 2.88813 14.6625 3.61373 14.9528C4.66586 15.3881 7.20547 15.2793 8.40272 15.2793C9.56368 15.2793 12.1033 15.3881 13.1917 14.9528C13.881 14.6625 14.4615 14.1183 14.7155 13.3927Z" fill="white"/>
</svg>
