<svg width="26" height="26" viewBox="0 0 26 26" fill="none" xmlns="http://www.w3.org/2000/svg">
<path d="M13.8853 6.04547L12.9969 6.93597L12.1043 6.04331C11.0122 4.95135 9.53103 4.33796 7.98667 4.33806C6.44232 4.33816 4.96126 4.95175 3.86931 6.04385C2.77736 7.13594 2.16396 8.61708 2.16406 10.1614C2.16416 11.7058 2.77775 13.1869 3.86985 14.2788L12.4228 22.8317C12.5751 22.9839 12.7816 23.0693 12.9969 23.0693C13.2122 23.0693 13.4188 22.9839 13.5711 22.8317L22.1316 14.2766C23.2224 13.1845 23.835 11.7039 23.8348 10.1603C23.8346 8.61668 23.2216 7.13629 22.1305 6.04439C21.5893 5.50277 20.9466 5.07311 20.2392 4.77996C19.5318 4.48682 18.7736 4.33594 18.0079 4.33594C17.2422 4.33594 16.484 4.48682 15.7766 4.77996C15.0692 5.07311 14.4265 5.50385 13.8853 6.04547ZM20.9789 13.1305L12.9969 21.1092L5.01818 13.1305C4.62497 12.7414 4.31252 12.2785 4.0988 11.7683C3.88507 11.2581 3.77429 10.7107 3.77282 10.1575C3.77135 9.60436 3.87922 9.05636 4.09022 8.54503C4.30123 8.0337 4.61121 7.56911 5.00235 7.17797C5.39349 6.78683 5.85808 6.47685 6.36941 6.26584C6.88074 6.05484 7.42874 5.94697 7.98189 5.94844C8.53505 5.94992 9.08246 6.0607 9.59266 6.27442C10.1029 6.48814 10.5658 6.80059 10.9548 7.1938L12.426 8.66389C12.5026 8.74052 12.5936 8.80107 12.6939 8.84199C12.7942 8.88291 12.9017 8.90336 13.01 8.90215C13.1183 8.90094 13.2252 8.87809 13.3246 8.83494C13.4239 8.79179 13.5136 8.72921 13.5884 8.65089L15.0336 7.1938C15.8302 6.45234 16.8833 6.04873 17.9714 6.06788C19.0595 6.08702 20.0977 6.52743 20.8677 7.29646C21.6378 8.06549 22.0795 9.10318 22.1 10.1912C22.1206 11.2793 21.7194 12.3329 20.9789 13.1305Z" fill="black"/>
</svg>
