<svg width="26" height="16" viewBox="0 0 26 16" fill="none" xmlns="http://www.w3.org/2000/svg">
<path d="M16.271 1.91333H9.40773V14.2468H16.271V1.91333Z" fill="#FF5F00"/>
<path d="M9.84355 8.08008C9.84247 6.89227 10.1116 5.71979 10.6307 4.65138C11.1497 3.58298 11.905 2.64667 12.8394 1.91333C11.6823 1.00381 10.2926 0.438191 8.82925 0.281126C7.36588 0.124061 5.88784 0.381878 4.56406 1.02512C3.24029 1.66836 2.1242 2.67108 1.34336 3.91865C0.562517 5.16621 0.148438 6.6083 0.148438 8.08008C0.148438 9.55186 0.562517 10.9939 1.34336 12.2415C2.1242 13.4891 3.24029 14.4918 4.56406 15.135C5.88784 15.7783 7.36588 16.0361 8.82925 15.879C10.2926 15.722 11.6823 15.1563 12.8394 14.2468C11.905 13.5135 11.1497 12.5772 10.6307 11.5088C10.1116 10.4404 9.84247 9.26788 9.84355 8.08008Z" fill="#EB001B"/>
<path d="M25.53 8.08008C25.53 9.55183 25.116 10.9939 24.3352 12.2415C23.5544 13.4891 22.4383 14.4918 21.1146 15.135C19.7908 15.7783 18.3128 16.0361 16.8495 15.879C15.3861 15.722 13.9965 15.1564 12.8394 14.2468C13.773 13.5127 14.5277 12.5763 15.0466 11.508C15.5656 10.4398 15.8352 9.26769 15.8352 8.08008C15.8352 6.89246 15.5656 5.72034 15.0466 4.65211C14.5277 3.58387 13.773 2.64741 12.8394 1.91333C13.9965 1.00381 15.3861 0.438187 16.8495 0.281124C18.3128 0.124061 19.7908 0.381889 21.1146 1.02514C22.4383 1.66839 23.5544 2.6711 24.3352 3.91867C25.116 5.16624 25.53 6.60832 25.53 8.08008Z" fill="#F79E1B"/>
<path d="M24.7816 12.9405V12.688H24.8835V12.6366H24.6242V12.688H24.726V12.9405H24.7816ZM25.2851 12.9405V12.6361H25.2056L25.1142 12.8455L25.0227 12.6361H24.9432V12.9405H24.9993V12.7109L25.085 12.9089H25.1432L25.229 12.7104V12.9405H25.2851Z" fill="#F79E1B"/>
</svg>
