<svg width="35" height="10" viewBox="0 0 35 10" fill="none" xmlns="http://www.w3.org/2000/svg">
<path fill-rule="evenodd" clip-rule="evenodd" d="M4.42752 0.710937H1.74003C1.55612 0.710937 1.39971 0.844583 1.37103 1.02605L0.284069 7.91679C0.262465 8.0528 0.367778 8.17536 0.505714 8.17536H1.78875C1.97266 8.17536 2.12907 8.04171 2.15775 7.85988L2.45091 6.00136C2.47919 5.81935 2.63599 5.68588 2.81951 5.68588H3.67028C5.44063 5.68588 6.46229 4.82927 6.72925 3.13186C6.84945 2.38925 6.73434 1.80575 6.38645 1.39699C6.00456 0.948408 5.32697 0.710937 4.42752 0.710937ZM4.73758 3.22769C4.59064 4.19194 3.85381 4.19194 3.14136 4.19194H2.73581L3.02032 2.39107C3.03721 2.28234 3.13152 2.20215 3.24156 2.20215H3.42743C3.91275 2.20215 4.3706 2.20215 4.60719 2.47872C4.74813 2.64382 4.79141 2.88893 4.73758 3.22769ZM12.4611 3.19677H11.1741C11.0645 3.19677 10.9697 3.27696 10.9528 3.38588L10.8959 3.74573L10.8059 3.61535C10.5273 3.21096 9.90606 3.07585 9.28593 3.07585C7.86365 3.07585 6.64905 4.15285 6.41246 5.6637C6.28952 6.41721 6.46429 7.13782 6.89183 7.64041C7.28408 8.10244 7.84529 8.295 8.51287 8.295C9.65873 8.295 10.2943 7.55821 10.2943 7.55821L10.2368 7.91588C10.2152 8.05262 10.3205 8.17518 10.4576 8.17518H11.6169C11.8013 8.17518 11.9568 8.04153 11.9859 7.85969L12.6815 3.45534C12.7035 3.31987 12.5986 3.19677 12.4611 3.19677ZM10.6671 5.70134C10.5429 6.43649 9.95934 6.92999 9.21519 6.92999C8.84148 6.92999 8.5427 6.81016 8.35102 6.58305C8.1608 6.35757 8.08842 6.03646 8.14898 5.67898C8.265 4.95001 8.85839 4.44051 9.59127 4.44051C9.95661 4.44051 10.2538 4.56179 10.4494 4.7909C10.6455 5.02237 10.7233 5.34531 10.6671 5.70134ZM18.022 3.19659H19.3154C19.4965 3.19659 19.6021 3.3997 19.4992 3.54826L15.1978 9.75639C15.1282 9.85694 15.0134 9.91677 14.8909 9.91677H13.5991C13.4173 9.91677 13.3111 9.71203 13.4164 9.5631L14.7557 7.67277L13.3313 3.4928C13.282 3.34751 13.3893 3.19659 13.5439 3.19659H14.8147C14.9798 3.19659 15.1254 3.30497 15.1731 3.46298L15.9291 5.98754L17.7129 3.36042C17.7827 3.25787 17.8987 3.19659 18.022 3.19659Z" fill="#253B80"/>
<path fill-rule="evenodd" clip-rule="evenodd" d="M32.0446 7.91618L33.1475 0.899429C33.1644 0.790511 33.2588 0.710325 33.3685 0.709961H34.6102C34.7473 0.709961 34.8526 0.832879 34.8309 0.96889L33.7433 7.85926C33.7149 8.0411 33.5585 8.17475 33.3743 8.17475H32.2653C32.1282 8.17475 32.0229 8.05219 32.0446 7.91618ZM23.5976 0.710322H20.9097C20.7262 0.710322 20.5698 0.843969 20.541 1.02544L19.4541 7.91618C19.4325 8.05219 19.5378 8.17475 19.6751 8.17475H21.0542C21.1824 8.17475 21.2921 8.08128 21.3121 7.954L21.6205 6.00075C21.6489 5.81873 21.8056 5.68527 21.9891 5.68527H22.8395C24.6102 5.68527 25.6317 4.82865 25.8988 3.13124C26.0194 2.38864 25.9035 1.80514 25.5558 1.39638C25.1741 0.947796 24.4971 0.710322 23.5976 0.710322ZM23.9077 3.22707C23.7611 4.19133 23.0243 4.19133 22.3114 4.19133H21.9062L22.1912 2.39046C22.2081 2.28172 22.3016 2.20154 22.412 2.20154H22.5978C23.0828 2.20154 23.5411 2.20153 23.7775 2.4781C23.9186 2.64321 23.9615 2.88832 23.9077 3.22707ZM31.6305 3.19616H30.3444C30.2339 3.19616 30.14 3.27635 30.1235 3.38527L30.0666 3.74512L29.9762 3.61474C29.6976 3.21034 29.0767 3.07524 28.4566 3.07524C27.0343 3.07524 25.8201 4.15224 25.5835 5.66309C25.4609 6.4166 25.635 7.1372 26.0625 7.63979C26.4555 8.10183 27.0159 8.29439 27.6835 8.29439C28.8294 8.29439 29.4648 7.5576 29.4648 7.5576L29.4075 7.91527C29.3859 8.05201 29.4912 8.17456 29.6292 8.17456H30.788C30.9715 8.17456 31.1278 8.04091 31.1566 7.85908L31.8525 3.45473C31.8738 3.31926 31.7685 3.19616 31.6305 3.19616ZM29.8367 5.70072C29.7132 6.43587 29.1289 6.92937 28.3846 6.92937C28.0116 6.92937 27.7123 6.80954 27.5204 6.58243C27.3302 6.35696 27.2587 6.03585 27.3186 5.67836C27.4351 4.9494 28.0278 4.4399 28.7607 4.4399C29.1262 4.4399 29.4232 4.56118 29.619 4.79029C29.8158 5.02176 29.8936 5.3447 29.8367 5.70072Z" fill="#179BD7"/>
</svg>
