<svg width="26" height="26" viewBox="0 0 26 26" fill="none" xmlns="http://www.w3.org/2000/svg">
<path d="M23.4338 17.8217H8.31367L9.07285 16.2754L21.6869 16.2525C22.1135 16.2525 22.4791 15.9479 22.5553 15.5264L24.3021 5.74844C24.3479 5.49199 24.2793 5.22793 24.1117 5.02734C24.0289 4.92863 23.9256 4.84911 23.809 4.7943C23.6923 4.7395 23.5652 4.71072 23.4363 4.70996L7.38945 4.65664L7.25234 4.01172C7.16602 3.60039 6.79531 3.30078 6.37383 3.30078H2.45098C2.21327 3.30078 1.98529 3.39521 1.8172 3.5633C1.64912 3.73138 1.55469 3.95936 1.55469 4.19707C1.55469 4.43478 1.64912 4.66276 1.8172 4.83084C1.98529 4.99893 2.21327 5.09336 2.45098 5.09336H5.64766L6.24688 7.94219L7.72207 15.0846L5.82285 18.1848C5.72422 18.3179 5.66482 18.4759 5.65135 18.6411C5.63789 18.8062 5.67091 18.9718 5.74668 19.1191C5.89902 19.4213 6.20625 19.6117 6.54648 19.6117H8.14102C7.80108 20.0632 7.61747 20.6132 7.61797 21.1783C7.61797 22.6154 8.78594 23.7834 10.223 23.7834C11.6602 23.7834 12.8281 22.6154 12.8281 21.1783C12.8281 20.6121 12.6402 20.0611 12.3051 19.6117H16.3955C16.0556 20.0632 15.872 20.6132 15.8725 21.1783C15.8725 22.6154 17.0404 23.7834 18.4775 23.7834C19.9146 23.7834 21.0826 22.6154 21.0826 21.1783C21.0826 20.6121 20.8947 20.0611 20.5596 19.6117H23.4363C23.9289 19.6117 24.3326 19.2105 24.3326 18.7154C24.3311 18.478 24.2358 18.2507 24.0674 18.0833C23.899 17.9159 23.6713 17.8218 23.4338 17.8217V17.8217ZM7.7627 6.42383L22.3826 6.47207L20.9506 14.4904L9.46641 14.5107L7.7627 6.42383ZM10.223 21.9807C9.78125 21.9807 9.4207 21.6201 9.4207 21.1783C9.4207 20.7365 9.78125 20.376 10.223 20.376C10.6648 20.376 11.0254 20.7365 11.0254 21.1783C11.0254 21.3911 10.9409 21.5952 10.7904 21.7457C10.6399 21.8961 10.4358 21.9807 10.223 21.9807V21.9807ZM18.4775 21.9807C18.0357 21.9807 17.6752 21.6201 17.6752 21.1783C17.6752 20.7365 18.0357 20.376 18.4775 20.376C18.9193 20.376 19.2799 20.7365 19.2799 21.1783C19.2799 21.3911 19.1953 21.5952 19.0449 21.7457C18.8944 21.8961 18.6903 21.9807 18.4775 21.9807V21.9807Z" fill="white"/>
</svg>
