<svg width="36" height="36" viewBox="0 0 36 36" fill="none" xmlns="http://www.w3.org/2000/svg">
<path d="M28.407 12.0172C28.3242 12.1054 28.2208 12.1739 28.107 12.2131C27.9932 12.2621 27.8691 12.2817 27.7449 12.2817H4.31491C3.48736 12.2817 3.06324 11.3023 3.64253 10.7148L7.49064 6.84647C7.57339 6.75834 7.67684 6.68978 7.80097 6.64082C7.91476 6.59185 8.03889 6.57227 8.16302 6.57227H31.6861C32.524 6.57227 32.9378 7.56137 32.3482 8.14896L28.407 12.0172ZM28.407 29.3119C28.2311 29.4784 27.9932 29.5763 27.7449 29.5763H4.31491C3.48736 29.5763 3.06324 28.6166 3.64253 28.0486L7.49064 24.2684C7.57339 24.1803 7.68718 24.1117 7.80097 24.0726C7.91476 24.0236 8.03889 24.004 8.16302 24.004H31.6861C32.524 24.004 32.9378 24.9735 32.3482 25.5415L28.407 29.3119ZM28.407 15.5526C28.2311 15.3861 27.9932 15.2881 27.7449 15.2881H4.31491C3.48736 15.2881 3.06324 16.2479 3.64253 16.8159L7.49064 20.596C7.57339 20.6841 7.68718 20.7527 7.80097 20.7919C7.91476 20.8408 8.03889 20.8604 8.16302 20.8604H31.6861C32.524 20.8604 32.9378 19.8909 32.3482 19.3229L28.407 15.5526Z" fill="url(#paint0_linear_251_563)"/>
<defs>
<linearGradient id="paint0_linear_251_563" x1="5.16358" y1="29.8634" x2="29.3944" y2="4.94481" gradientUnits="userSpaceOnUse">
<stop stop-color="#CF41E8"/>
<stop offset="1" stop-color="#10F2B0"/>
</linearGradient>
</defs>
</svg>
