<svg width="462" height="41" viewBox="0 0 462 41" fill="none" xmlns="http://www.w3.org/2000/svg">
<path d="M18.0112 38.7019C16.1953 39.6658 14.1384 40.1477 11.8407 40.1477C10.0989 40.1477 8.41265 39.8697 6.78201 39.3136C5.15136 38.7946 3.7616 38.0532 2.61274 37.0894L1.44535 40.1477H0.722673L0 26.8578L0.500312 26.7466C1.05621 29.2674 1.61212 31.2322 2.16802 32.6409C2.76098 34.0495 3.52071 35.2729 4.44722 36.3109C6.33728 38.4239 8.83884 39.4804 11.9519 39.4804C14.6202 39.4804 16.6956 38.7946 18.178 37.423C19.6975 36.0143 20.4572 34.1237 20.4572 31.7512C20.4572 30.083 20.0495 28.6743 19.2342 27.5251C18.456 26.3759 17.3812 25.3935 16.01 24.578C14.6388 23.7624 12.7116 22.8171 10.2286 21.742C8.19029 20.8523 6.48553 19.9812 5.1143 19.1285C3.74307 18.2388 2.59421 17.1082 1.66771 15.7366C0.778263 14.3279 0.333542 12.6226 0.333542 10.6208C0.333542 8.58189 0.815323 6.76542 1.77889 5.17138C2.77951 3.54026 4.13221 2.27986 5.83697 1.39015C7.5788 0.463385 9.54299 0 11.7295 0C13.249 0 14.6573 0.259496 15.9544 0.778487C17.2886 1.29748 18.7154 2.15011 20.2348 3.33637L21.569 0.667276H22.2917L22.8476 12.7894L22.2917 12.9563C21.6987 10.4725 20.939 8.28533 20.0125 6.39472C18.1595 2.57642 15.3244 0.667276 11.5072 0.667276C9.20945 0.667276 7.37497 1.33455 6.00374 2.6691C4.63252 3.96658 3.94691 5.74598 3.94691 8.0073C3.94691 9.63841 4.31751 11.01 5.05871 12.1222C5.83697 13.2343 6.89319 14.1981 8.22735 15.0137C9.59858 15.8292 11.5257 16.8116 14.0087 17.9608C16.2323 18.9617 18.0112 19.907 19.3454 20.7967C20.7166 21.6864 21.8099 22.7986 22.6252 24.1331C23.4776 25.4306 23.9038 27.0432 23.9038 28.9708C23.9038 31.121 23.385 33.0486 22.3473 34.7539C21.3096 36.4221 19.8642 37.7381 18.0112 38.7019Z" fill="white"/>
<path d="M56.9122 4.28168C56.9122 3.39198 56.801 2.78031 56.5787 2.44667C56.3563 2.11304 55.9116 1.89061 55.2445 1.7794L51.2976 1.33455V0.889698H63.4719V1.33455L59.4694 1.7794C58.8023 1.89061 58.3576 2.11304 58.1352 2.44667C57.9128 2.78031 57.8017 3.39198 57.8017 4.28168V25.6345C57.8017 27.9699 57.6164 29.9161 57.2458 31.4731C56.9122 33.0301 56.3748 34.3646 55.6336 35.4768C54.633 36.9225 53.2618 38.0717 51.52 38.9244C49.7781 39.7399 47.851 40.1477 45.7386 40.1477C44.0338 40.1477 42.3476 39.8697 40.6799 39.3136C39.0122 38.7575 37.6224 37.9976 36.5106 37.0337C35.3617 36.0328 34.5464 34.7539 34.0646 33.1969C33.5829 31.6399 33.342 29.4898 33.342 26.7466V1.7794L28.7836 1.33455V0.889698H42.4588V1.33455L37.6224 1.7794V28.5816C37.6224 31.2878 37.8633 33.3637 38.3451 34.8095C38.8639 36.2553 39.7163 37.3303 40.9022 38.0347C41.5323 38.4054 42.3105 38.7019 43.237 38.9244C44.1635 39.1468 45.1271 39.258 46.1277 39.258C47.9807 39.258 49.6855 38.8873 51.242 38.1459C52.7985 37.4045 54.0401 36.3479 54.9666 34.9763C55.6707 33.9383 56.171 32.7335 56.4675 31.3619C56.764 29.9532 56.9122 28.1367 56.9122 25.9125V4.28168Z" fill="white"/>
<path d="M105.723 1.7794V38.3683L110.559 38.8131V39.258H96.8838V38.8131L101.442 38.3683V4.50411H101.22L87.8226 40.1477H87.2666L72.3129 4.4485H72.0905V35.866C72.0905 36.7557 72.2017 37.3859 72.4241 37.7566C72.6464 38.0903 73.0911 38.2942 73.7582 38.3683L77.7051 38.8131V39.258H65.5309V38.8131L69.5334 38.3683C70.2005 38.2942 70.6452 38.0903 70.8675 37.7566C71.0899 37.3859 71.2011 36.7557 71.2011 35.866V2.50228C70.9417 2.05743 70.6081 1.76086 70.2005 1.61258C69.8299 1.42723 69.274 1.33455 68.5328 1.33455H65.9756V0.889698H75.4815L89.1567 33.5306H89.3791L101.609 0.889698H110.559V1.33455L105.723 1.7794Z" fill="white"/>
<path d="M154.147 1.7794V38.3683L158.983 38.8131V39.258H145.308V38.8131L149.866 38.3683V4.50411H149.644L136.247 40.1477H135.691L120.737 4.4485H120.515V35.866C120.515 36.7557 120.626 37.3859 120.848 37.7566C121.071 38.0903 121.515 38.2942 122.183 38.3683L126.129 38.8131V39.258H113.955V38.8131L117.958 38.3683C118.625 38.2942 119.069 38.0903 119.292 37.7566C119.514 37.3859 119.625 36.7557 119.625 35.866V2.50228C119.366 2.05743 119.032 1.76086 118.625 1.61258C118.254 1.42723 117.698 1.33455 116.957 1.33455H114.4V0.889698H123.906L137.581 33.5306H137.803L150.033 0.889698H158.983V1.33455L154.147 1.7794Z" fill="white"/>
<path d="M163.158 0.889698H176.555V1.33455L171.997 1.7794V38.3683L176.555 38.8131V39.258H163.158V38.8131L167.716 38.3683V1.7794L163.158 1.33455V0.889698Z" fill="white"/>
<path d="M194.86 38.3683V1.50137H187.522C186.633 1.50137 185.984 1.64965 185.577 1.94622C185.169 2.20571 184.78 2.76178 184.409 3.6144L180.574 12.1778L180.129 12.0666L182.297 0H182.63C183.446 0.370708 184.131 0.611668 184.687 0.722881C185.28 0.834092 186.021 0.889698 186.911 0.889698H208.313C209.202 0.889698 209.925 0.834092 210.481 0.722881C211.074 0.611668 211.778 0.370708 212.593 0H212.927L214.15 12.0666L213.705 12.1778L210.259 3.6144C209.925 2.76178 209.555 2.20571 209.147 1.94622C208.776 1.64965 208.146 1.50137 207.257 1.50137H199.141V38.3683L205.144 38.8131V39.258H188.856V38.8131L194.86 38.3683Z" fill="white"/>
<path d="M248.997 19.0173C252.221 19.4622 254.686 20.5187 256.391 22.1869C258.096 23.8551 258.948 26.0422 258.948 28.7484C258.948 31.7141 257.91 34.2164 255.835 36.2553C253.797 38.2571 250.646 39.258 246.385 39.258H229.985V38.8131L234.544 38.3683V1.7794L229.985 1.33455V0.889698H243.827C248.2 0.889698 251.536 1.66819 253.834 3.22516C256.131 4.78214 257.28 7.04346 257.28 10.0091C257.28 12.3817 256.558 14.3464 255.112 15.9034C253.667 17.4604 251.629 18.4242 248.997 18.7949V19.0173ZM238.824 1.55697V18.6281H245.273C247.756 18.6281 249.535 17.9052 250.609 16.4594C251.721 15.0137 252.277 12.8636 252.277 10.0091C252.277 4.37436 249.405 1.55697 243.661 1.55697H238.824ZM245.05 38.5907C250.795 38.5907 253.667 35.3656 253.667 28.9152C253.667 25.5418 252.944 23.0951 251.499 21.5752C250.053 20.0553 247.904 19.2954 245.05 19.2954H238.824V38.5907H245.05Z" fill="white"/>
<path d="M291.759 4.28168C291.759 3.39198 291.648 2.78031 291.426 2.44667C291.203 2.11304 290.759 1.89061 290.091 1.7794L286.145 1.33455V0.889698H298.319V1.33455L294.316 1.7794C293.649 1.89061 293.205 2.11304 292.982 2.44667C292.76 2.78031 292.649 3.39198 292.649 4.28168V25.6345C292.649 27.9699 292.463 29.9161 292.093 31.4731C291.759 33.0301 291.222 34.3646 290.481 35.4768C289.48 36.9225 288.109 38.0717 286.367 38.9244C284.625 39.7399 282.698 40.1477 280.586 40.1477C278.881 40.1477 277.195 39.8697 275.527 39.3136C273.859 38.7575 272.469 37.9976 271.358 37.0337C270.209 36.0328 269.393 34.7539 268.912 33.1969C268.43 31.6399 268.189 29.4898 268.189 26.7466V1.7794L263.631 1.33455V0.889698H277.306V1.33455L272.469 1.7794V28.5816C272.469 31.2878 272.71 33.3637 273.192 34.8095C273.711 36.2553 274.563 37.3303 275.749 38.0347C276.379 38.4054 277.157 38.7019 278.084 38.9244C279.01 39.1468 279.974 39.258 280.975 39.258C282.828 39.258 284.532 38.8873 286.089 38.1459C287.645 37.4045 288.887 36.3479 289.814 34.9763C290.518 33.9383 291.018 32.7335 291.314 31.3619C291.611 29.9532 291.759 28.1367 291.759 25.9125V4.28168Z" fill="white"/>
<path d="M305.714 38.3683V1.7794L301.156 1.33455V0.889698H314.831V1.33455L309.995 1.7794V38.5907H322.28C323.17 38.5907 323.818 38.461 324.226 38.2015C324.634 37.9049 325.004 37.3488 325.338 36.5333L329.118 27.0246L329.785 27.1358L328.395 39.258H301.156V38.8131L305.714 38.3683Z" fill="white"/>
<path d="M338.124 38.3683V1.7794L333.566 1.33455V0.889698H347.241V1.33455L342.404 1.7794V38.5907H354.69C355.579 38.5907 356.228 38.461 356.636 38.2015C357.043 37.9049 357.414 37.3488 357.747 36.5333L361.527 27.0246L362.195 27.1358L360.805 39.258H333.566V38.8131L338.124 38.3683Z" fill="white"/>
<path d="M365.975 0.889698H379.372V1.33455L374.814 1.7794V38.3683L379.372 38.8131V39.258H365.975V38.8131L370.534 38.3683V1.7794L365.975 1.33455V0.889698Z" fill="white"/>
<path d="M401.688 0C404.912 0 407.858 0.889699 410.527 2.6691C413.232 4.4485 415.345 6.87664 416.864 9.95351C418.421 12.9933 419.199 16.3668 419.199 20.0738C419.199 23.7809 418.421 27.1729 416.864 30.2498C415.345 33.2896 413.232 35.6992 410.527 37.4786C407.858 39.258 404.912 40.1477 401.688 40.1477C398.464 40.1477 395.499 39.258 392.794 37.4786C390.125 35.6992 388.013 33.2896 386.456 30.2498C384.937 27.1729 384.177 23.7809 384.177 20.0738C384.177 16.3668 384.937 12.9933 386.456 9.95351C388.013 6.87664 390.125 4.4485 392.794 2.6691C395.499 0.889699 398.464 0 401.688 0ZM389.514 20.0738C389.514 26.2647 390.57 31.0468 392.682 34.4203C394.795 37.7566 397.797 39.4248 401.688 39.4248C405.579 39.4248 408.581 37.7566 410.694 34.4203C412.806 31.0468 413.862 26.2647 413.862 20.0738C413.862 13.883 412.806 9.10089 410.694 5.72744C408.581 2.354 405.579 0.667276 401.688 0.667276C397.797 0.667276 394.795 2.354 392.682 5.72744C390.57 9.10089 389.514 13.883 389.514 20.0738Z" fill="white"/>
<path d="M461.698 0.889698V1.33455L457.696 1.7794C456.807 1.89061 456.214 2.11304 455.917 2.44667C455.621 2.78031 455.472 3.39198 455.472 4.28168V40.1477H454.916L429.956 4.72653H429.734V35.866C429.734 36.7557 429.845 37.3859 430.068 37.7566C430.29 38.0903 430.735 38.2942 431.402 38.3683L435.349 38.8131V39.258H423.174V38.8131L427.177 38.3683C427.844 38.2942 428.289 38.0903 428.511 37.7566C428.733 37.3859 428.845 36.7557 428.845 35.866V3.50319L428.622 3.16955C428.103 2.42814 427.603 1.94622 427.121 1.72379C426.677 1.4643 426.01 1.33455 425.12 1.33455H424.175V0.889698H432.458L454.361 31.5843H454.583V4.28168C454.583 3.39198 454.472 2.76177 454.249 2.39107C454.027 2.02036 453.582 1.81647 452.915 1.7794L448.412 1.33455V0.889698H461.698Z" fill="white"/>
</svg>
