<svg width="34" height="11" viewBox="0 0 34 11" fill="none" xmlns="http://www.w3.org/2000/svg">
<path d="M17.0252 0.185933L14.8509 10.3495H12.2218L14.3964 0.185933H17.0252ZM28.0868 6.74857L29.471 2.93181L30.2675 6.74857H28.0868ZM31.0203 10.3495H33.4522L31.33 0.185933H29.0853C28.581 0.185933 28.1554 0.479306 27.9659 0.931592L24.0214 10.3495H26.7824L27.3306 8.83179H30.7037L31.0203 10.3495ZM24.1585 7.03101C24.1697 4.3485 20.4488 4.20085 20.4746 3.00258C20.4823 2.63747 20.83 2.25017 21.5895 2.15077C21.9669 2.10155 23.0043 2.06391 24.1823 2.60595L24.6436 0.450677C24.0108 0.220996 23.1966 0 22.184 0C19.5854 0 17.7564 1.38163 17.7409 3.35997C17.7245 4.82298 19.0466 5.63941 20.0429 6.12579C21.0671 6.62408 21.4113 6.94319 21.4068 7.38872C21.4 8.07101 20.5897 8.37146 19.8338 8.38336C18.5117 8.40427 17.7445 8.02662 17.1329 7.7416L16.6565 9.96861C17.2706 10.2507 18.4045 10.4958 19.5809 10.5084C22.3426 10.5084 24.1495 9.14382 24.1585 7.03101ZM13.2683 0.185933L9.00854 10.3495H6.22889L4.13281 2.23826C4.00543 1.73869 3.89477 1.55598 3.50778 1.34528C2.87632 1.00268 1.83246 0.68068 0.914062 0.481237L0.97679 0.185933H5.45042C6.02044 0.185933 6.53352 0.565517 6.66284 1.22207L7.77007 7.10371L10.506 0.185933H13.2683Z" fill="#1434CB"/>
</svg>
